<svg width="61" height="61" viewBox="0 0 61 61" fill="none" xmlns="http://www.w3.org/2000/svg">
    <g clip-path="url(#clip0_2079_3869)">
        <path d="M16.6754 9.86053C14.4343 10.139 13.1944 10.4971 11.5037 11.3458C7.47235 13.3879 4.67431 17.2203 3.94496 21.729C3.80572 22.5644 3.74605 24.2618 3.82561 25.031C3.87865 25.4818 3.87202 25.641 3.81235 25.6741C3.76594 25.7006 3.54713 25.8598 3.3217 26.0322C-0.179172 28.6644 -1.0345 33.5643 1.37235 37.1912C2.65202 39.114 4.76713 40.4733 7.01485 40.8114C8.03594 40.9639 22.2914 40.9639 22.6627 40.8114C23.6771 40.3871 23.7501 38.9549 22.7887 38.4443L22.5102 38.2918L14.8852 38.2587C6.29213 38.2189 6.96844 38.2587 5.79485 37.6885C4.70083 37.158 3.75268 36.2099 3.22224 35.1159C2.83105 34.3069 2.7117 33.8097 2.67192 32.8217C2.64539 32.1322 2.65865 31.8935 2.778 31.4094C3.10289 30.0436 3.85876 28.9031 4.9992 28.0677C5.48985 27.703 5.85452 27.5174 6.45126 27.3185C6.84909 27.1792 6.90213 27.1461 6.86235 27.0267C6.84246 26.9472 6.743 26.5294 6.65018 26.0918C6.48442 25.3691 6.47115 25.1768 6.47115 23.9038C6.47115 22.6573 6.49105 22.4252 6.65018 21.6826C7.14746 19.3288 8.13539 17.4723 9.74659 15.8412C10.4693 15.1118 10.887 14.7671 11.6694 14.2631C16.808 10.9413 23.6042 12.2409 27.1581 17.2203C27.5029 17.7043 28.0466 18.6326 28.2389 19.0636C28.4444 19.5211 28.6234 19.7399 28.955 19.9388C29.3926 20.1908 29.9495 20.1908 30.407 19.9255C31.6204 19.2227 32.4028 18.9177 33.4504 18.7387C34.2129 18.6061 35.4859 18.6061 36.2418 18.7321C38.7083 19.163 40.8964 20.7676 42.0368 22.9822C42.5805 24.0298 43.0712 24.3679 44.006 24.3215C44.5564 24.295 44.8813 24.169 45.6172 23.7049C45.8162 23.5789 46.2206 23.3933 46.5124 23.2938C46.9632 23.1413 47.1489 23.1148 47.7721 23.1148C48.3821 23.1214 48.5877 23.1479 49.0187 23.3004C50.4707 23.7911 51.5448 25.031 51.7968 26.5162L51.8764 26.9869H52.3869C55.4038 26.9869 57.7509 28.8501 58.288 31.6747C58.3875 32.2117 58.3278 33.5909 58.1885 34.1147C57.731 35.7656 56.4315 37.2376 54.8601 37.8675C53.8522 38.2719 54.1771 38.2587 45.8095 38.2587C37.2297 38.2587 37.6806 38.2322 37.243 38.7162C37.0176 38.9681 36.8651 39.3328 36.8651 39.6179C36.8651 40.0821 37.1701 40.5594 37.601 40.7783C37.8464 40.9109 38.0453 40.9109 45.6637 40.9109C54.2434 40.9109 54.1042 40.9175 55.3242 40.5064C58.7124 39.3726 60.9999 36.2099 60.9999 32.656C60.9999 29.5861 59.3555 26.861 56.584 25.3293C56.0734 25.0442 54.9662 24.653 54.323 24.5271L53.9119 24.4541L53.6997 24.043C53.2688 23.2076 52.44 22.2661 51.6045 21.6627C51.1404 21.3246 50.1392 20.8604 49.496 20.6814C49.2043 20.6018 48.6672 20.5223 48.3026 20.4958C47.0229 20.4162 45.9819 20.6085 44.8813 21.1256C44.5166 21.298 44.2182 21.424 44.205 21.4108C44.1983 21.3975 44.0392 21.1588 43.8668 20.8869C42.5474 18.858 40.5582 17.3264 38.2243 16.5506C37.0905 16.1661 36.1689 16.0268 34.8759 16.0268C33.3178 16.0268 32.1575 16.2523 30.7385 16.8225C30.3938 16.9617 30.1352 17.0347 30.1219 16.9949C30.0689 16.8424 29.1738 15.5229 28.8555 15.1251C28.1394 14.2366 27.1183 13.2553 26.2365 12.6055C24.1678 11.0938 21.993 10.2252 19.4337 9.90695C18.7441 9.82075 17.1859 9.79423 16.6754 9.86053Z"
              fill="black" fill-opacity="0.5"/>
        <path d="M29.9026 29.7653C29.7766 29.8183 29.6042 29.931 29.518 30.0106C29.1533 30.3488 29.1732 29.8714 29.1732 38.6434C29.1732 43.1123 29.1533 46.7657 29.1335 46.7657C29.1136 46.7657 28.2715 45.9767 27.2637 45.0087C25.2414 43.0659 25.1751 43.0262 24.6115 43.1787C23.9949 43.3444 23.5374 43.8682 23.4843 44.4716C23.4445 44.9423 23.5374 45.0948 24.2468 45.7712C24.5651 46.0762 25.9111 47.3691 27.2371 48.6421C28.7224 50.0677 29.7368 50.9893 29.8827 51.0556C30.0153 51.1087 30.2938 51.1484 30.506 51.1484C30.9502 51.1484 31.2618 51.0092 31.6597 50.6313C31.8055 50.492 32.9393 49.4113 34.1792 48.2178C35.4191 47.0309 36.6391 45.8706 36.8911 45.6319C37.5408 45.0285 37.6668 44.644 37.4016 44.0804C37.0701 43.3709 36.2943 42.9665 35.7175 43.2118C35.5782 43.2648 35.134 43.6362 34.7229 44.0273C34.3118 44.4185 33.6223 45.0882 33.1847 45.5126C32.747 45.9303 32.2697 46.3878 32.1238 46.5204L31.8586 46.7657L31.8254 38.5904C31.7989 32.3047 31.7724 30.3885 31.7127 30.2825C31.4077 29.752 30.5192 29.5001 29.9026 29.7653Z"
              fill="black" fill-opacity="0.5"/>
    </g>
    <defs>
<clipPath id="clip0_2079_3869">
<rect width="61" height="61" fill="white"/>
</clipPath>
</defs>
</svg>
