<svg width="16" height="16" viewBox="0 0 16 16" fill="none" xmlns="http://www.w3.org/2000/svg">
    <path d="M14.4961 9.08353H9.08255V14.4971C9.08255 14.7842 8.96848 15.0596 8.76543 15.2627C8.56239 15.4657 8.287 15.5798 7.99985 15.5798C7.71269 15.5798 7.4373 15.4657 7.23426 15.2627C7.03121 15.0596 6.91714 14.7842 6.91714 14.4971V9.08353H1.50361C1.21645 9.08353 0.941063 8.96946 0.738016 8.76641C0.534969 8.56336 0.420898 8.28797 0.420898 8.00082C0.420898 7.71367 0.534969 7.43828 0.738016 7.23523C0.941063 7.03219 1.21645 6.91812 1.50361 6.91812H6.91714V1.50458C6.91714 1.21743 7.03121 0.942039 7.23426 0.738992C7.4373 0.535945 7.71269 0.421875 7.99985 0.421875C8.287 0.421875 8.56239 0.535945 8.76543 0.738992C8.96848 0.942039 9.08255 1.21743 9.08255 1.50458V6.91812H14.4961C14.7832 6.91812 15.0586 7.03219 15.2617 7.23523C15.4647 7.43828 15.5788 7.71367 15.5788 8.00082C15.5788 8.28797 15.4647 8.56336 15.2617 8.76641C15.0586 8.96946 14.7832 9.08353 14.4961 9.08353Z"
          fill="#1661F5"/>
</svg>
