<svg width="44" height="18" viewBox="0 0 44 18" fill="none" xmlns="http://www.w3.org/2000/svg">
<path d="M43.9993 9L28.9993 0.339746V17.6603L43.9993 9ZM5.2793 10.5C5.30041 10.5 5.32151 10.5 5.3426 10.5C5.36368 10.5 5.38475 10.5 5.4058 10.5C5.42685 10.5 5.44789 10.5 5.46891 10.5C5.48992 10.5 5.51092 10.5 5.53191 10.5C5.5529 10.5 5.57386 10.5 5.59482 10.5C5.61577 10.5 5.63671 10.5 5.65762 10.5C5.67854 10.5 5.69945 10.5 5.72034 10.5C5.74122 10.5 5.76209 10.5 5.78295 10.5C5.8038 10.5 5.82464 10.5 5.84546 10.5C5.86629 10.5 5.88709 10.5 5.90788 10.5C5.92867 10.5 5.94944 10.5 5.9702 10.5C5.99096 10.5 6.0117 10.5 6.03243 10.5C6.05315 10.5 6.07386 10.5 6.09456 10.5C6.11525 10.5 6.13593 10.5 6.15659 10.5C6.17725 10.5 6.19789 10.5 6.21852 10.5C6.23915 10.5 6.25977 10.5 6.28036 10.5C6.30096 10.5 6.32154 10.5 6.34211 10.5C6.36268 10.5 6.38323 10.5 6.40376 10.5C6.42429 10.5 6.44481 10.5 6.46531 10.5C6.48582 10.5 6.5063 10.5 6.52678 10.5C6.54725 10.5 6.5677 10.5 6.58814 10.5C6.60858 10.5 6.62901 10.5 6.64941 10.5C6.66982 10.5 6.69022 10.5 6.71059 10.5C6.73097 10.5 6.75133 10.5 6.77168 10.5C6.79202 10.5 6.81236 10.5 6.83267 10.5C6.85299 10.5 6.87329 10.5 6.89357 10.5C6.91385 10.5 6.93412 10.5 6.95438 10.5C6.97463 10.5 6.99487 10.5 7.01509 10.5C7.03531 10.5 7.05552 10.5 7.07571 10.5C7.0959 10.5 7.11608 10.5 7.13624 10.5C7.1564 10.5 7.17655 10.5 7.19668 10.5C7.21681 10.5 7.23692 10.5 7.25702 10.5C7.27712 10.5 7.29721 10.5 7.31728 10.5C7.33735 10.5 7.3574 10.5 7.37744 10.5C7.39748 10.5 7.41751 10.5 7.43752 10.5C7.45753 10.5 7.47752 10.5 7.4975 10.5C7.51748 10.5 7.53744 10.5 7.55739 10.5C7.57734 10.5 7.59728 10.5 7.6172 10.5C7.63712 10.5 7.65702 10.5 7.67691 10.5C7.6968 10.5 7.71668 10.5 7.73654 10.5C7.7564 10.5 7.77624 10.5 7.79607 10.5C7.8159 10.5 7.83572 10.5 7.85552 10.5C7.87532 10.5 7.8951 10.5 7.91488 10.5C7.93465 10.5 7.9544 10.5 7.97414 10.5C7.99389 10.5 8.01361 10.5 8.03333 10.5C8.05304 10.5 8.07274 10.5 8.09242 10.5C8.1121 10.5 8.13177 10.5 8.15143 10.5C8.17108 10.5 8.19072 10.5 8.21035 10.5C8.22997 10.5 8.24958 10.5 8.26918 10.5C8.28877 10.5 8.30836 10.5 8.32792 10.5C8.34749 10.5 8.36704 10.5 8.38658 10.5C8.40612 10.5 8.42564 10.5 8.44515 10.5C8.46466 10.5 8.48416 10.5 8.50364 10.5C8.52312 10.5 8.54259 10.5 8.56204 10.5C8.58149 10.5 8.60093 10.5 8.62036 10.5C8.63978 10.5 8.65919 10.5 8.67859 10.5C8.69798 10.5 8.71736 10.5 8.73673 10.5C8.7561 10.5 8.77545 10.5 8.79479 10.5C8.81413 10.5 8.83346 10.5 8.85277 10.5C8.87208 10.5 8.89138 10.5 8.91066 10.5C8.92994 10.5 8.94921 10.5 8.96847 10.5C8.98772 10.5 9.00697 10.5 9.02619 10.5C9.04542 10.5 9.06464 10.5 9.08384 10.5C9.10303 10.5 9.12222 10.5 9.14139 10.5C9.16057 10.5 9.17972 10.5 9.19887 10.5C9.21801 10.5 9.23714 10.5 9.25626 10.5C9.27538 10.5 9.29448 10.5 9.31357 10.5C9.33266 10.5 9.35174 10.5 9.3708 10.5C9.38986 10.5 9.40891 10.5 9.42795 10.5C9.44698 10.5 9.466 10.5 9.48501 10.5C9.50402 10.5 9.52301 10.5 9.542 10.5C9.56098 10.5 9.57994 10.5 9.5989 10.5C9.61785 10.5 9.63679 10.5 9.65572 10.5C9.67465 10.5 9.69356 10.5 9.71246 10.5C9.73136 10.5 9.75025 10.5 9.76912 10.5C9.788 10.5 9.80686 10.5 9.8257 10.5C9.84455 10.5 9.86339 10.5 9.88221 10.5C9.90103 10.5 9.91983 10.5 9.93863 10.5C9.95742 10.5 9.9762 10.5 9.99497 10.5C10.0137 10.5 10.0325 10.5 10.0512 10.5C10.07 10.5 10.0887 10.5 10.1074 10.5C10.1261 10.5 10.1448 10.5 10.1635 10.5C10.1822 10.5 10.2009 10.5 10.2196 10.5C10.2382 10.5 10.2569 10.5 10.2755 10.5C10.2941 10.5 10.3128 10.5 10.3314 10.5C10.35 10.5 10.3686 10.5 10.3872 10.5C10.4058 10.5 10.4243 10.5 10.4429 10.5C10.4615 10.5 10.48 10.5 10.4985 10.5C10.5171 10.5 10.5356 10.5 10.5541 10.5C10.5726 10.5 10.5911 10.5 10.6096 10.5C10.6281 10.5 10.6465 10.5 10.665 10.5C10.6835 10.5 10.7019 10.5 10.7203 10.5C10.7388 10.5 10.7572 10.5 10.7756 10.5C10.794 10.5 10.8124 10.5 10.8308 10.5C10.8492 10.5 10.8675 10.5 10.8859 10.5C10.9043 10.5 10.9226 10.5 10.9409 10.5C10.9593 10.5 10.9776 10.5 10.9959 10.5C11.0142 10.5 11.0325 10.5 11.0508 10.5C11.0691 10.5 11.0873 10.5 11.1056 10.5C11.1239 10.5 11.1421 10.5 11.1603 10.5C11.1786 10.5 11.1968 10.5 11.215 10.5C11.2332 10.5 11.2514 10.5 11.2696 10.5C11.2878 10.5 11.306 10.5 11.3241 10.5C11.3423 10.5 11.3604 10.5 11.3786 10.5C11.3967 10.5 11.4148 10.5 11.4329 10.5C11.4511 10.5 11.4692 10.5 11.4873 10.5C11.5053 10.5 11.5234 10.5 11.5415 10.5C11.5595 10.5 11.5776 10.5 11.5956 10.5C11.6137 10.5 11.6317 10.5 11.6497 10.5C11.6677 10.5 11.6858 10.5 11.7037 10.5C11.7217 10.5 11.7397 10.5 11.7577 10.5C11.7757 10.5 11.7936 10.5 11.8116 10.5C11.8295 10.5 11.8475 10.5 11.8654 10.5C11.8833 10.5 11.9012 10.5 11.9191 10.5C11.937 10.5 11.9549 10.5 11.9728 10.5C11.9907 10.5 12.0085 10.5 12.0264 10.5C12.0442 10.5 12.0621 10.5 12.0799 10.5C12.0977 10.5 12.1156 10.5 12.1334 10.5C12.1512 10.5 12.169 10.5 12.1867 10.5C12.2045 10.5 12.2223 10.5 12.2401 10.5C12.2578 10.5 12.2756 10.5 12.2933 10.5C12.3111 10.5 12.3288 10.5 12.3465 10.5C12.3642 10.5 12.3819 10.5 12.3996 10.5C12.4173 10.5 12.435 10.5 12.4527 10.5C12.4703 10.5 12.488 10.5 12.5057 10.5C12.5233 10.5 12.5409 10.5 12.5586 10.5C12.5762 10.5 12.5938 10.5 12.6114 10.5C12.629 10.5 12.6466 10.5 12.6642 10.5C12.6818 10.5 12.6994 10.5 12.7169 10.5C12.7345 10.5 12.752 10.5 12.7696 10.5C12.7871 10.5 12.8046 10.5 12.8221 10.5C12.8397 10.5 12.8572 10.5 12.8747 10.5C12.8922 10.5 12.9096 10.5 12.9271 10.5C12.9446 10.5 12.9621 10.5 12.9795 10.5C12.997 10.5 13.0144 10.5 13.0318 10.5C13.0493 10.5 13.0667 10.5 13.0841 10.5C13.1015 10.5 13.1189 10.5 13.1363 10.5C13.1537 10.5 13.1711 10.5 13.1884 10.5C13.2058 10.5 13.2231 10.5 13.2405 10.5C13.2578 10.5 13.2752 10.5 13.2925 10.5C13.3098 10.5 13.3271 10.5 13.3444 10.5C13.3617 10.5 13.379 10.5 13.3963 10.5C13.4136 10.5 13.4309 10.5 13.4481 10.5C13.4654 10.5 13.4826 10.5 13.4999 10.5C13.5171 10.5 13.5344 10.5 13.5516 10.5C13.5688 10.5 13.586 10.5 13.6032 10.5C13.6204 10.5 13.6376 10.5 13.6548 10.5C13.672 10.5 13.6891 10.5 13.7063 10.5C13.7234 10.5 13.7406 10.5 13.7577 10.5C13.7749 10.5 13.792 10.5 13.8091 10.5C13.8262 10.5 13.8433 10.5 13.8604 10.5C13.8775 10.5 13.8946 10.5 13.9117 10.5C13.9288 10.5 13.9459 10.5 13.9629 10.5C13.98 10.5 13.997 10.5 14.0141 10.5C14.0311 10.5 14.0481 10.5 14.0652 10.5C14.0822 10.5 14.0992 10.5 14.1162 10.5C14.1332 10.5 14.1502 10.5 14.1671 10.5C14.1841 10.5 14.2011 10.5 14.2181 10.5C14.235 10.5 14.252 10.5 14.2689 10.5C14.2859 10.5 14.3028 10.5 14.3197 10.5C14.3366 10.5 14.3535 10.5 14.3704 10.5C14.3873 10.5 14.4042 10.5 14.4211 10.5C14.438 10.5 14.4549 10.5 14.4717 10.5C14.4886 10.5 14.5055 10.5 14.5223 10.5C14.5391 10.5 14.556 10.5 14.5728 10.5C14.5896 10.5 14.6065 10.5 14.6233 10.5C14.6401 10.5 14.6569 10.5 14.6737 10.5C14.6904 10.5 14.7072 10.5 14.724 10.5C14.7408 10.5 14.7575 10.5 14.7743 10.5C14.791 10.5 14.8078 10.5 14.8245 10.5C14.8412 10.5 14.858 10.5 14.8747 10.5C14.8914 10.5 14.9081 10.5 14.9248 10.5C14.9415 10.5 14.9582 10.5 14.9749 10.5C14.9915 10.5 15.0082 10.5 15.0249 10.5C15.0415 10.5 15.0582 10.5 15.0748 10.5C15.0915 10.5 15.1081 10.5 15.1247 10.5C15.1413 10.5 15.158 10.5 15.1746 10.5C15.1912 10.5 15.2078 10.5 15.2244 10.5C15.2409 10.5 15.2575 10.5 15.2741 10.5C15.2907 10.5 15.3072 10.5 15.3238 10.5C15.3403 10.5 15.3569 10.5 15.3734 10.5C15.39 10.5 15.4065 10.5 15.423 10.5C15.4395 10.5 15.456 10.5 15.4725 10.5C15.489 10.5 15.5055 10.5 15.522 10.5C15.5385 10.5 15.555 10.5 15.5714 10.5C15.5879 10.5 15.6044 10.5 15.6208 10.5C15.6373 10.5 15.6537 10.5 15.6701 10.5C15.6866 10.5 15.703 10.5 15.7194 10.5C15.7358 10.5 15.7522 10.5 15.7686 10.5C15.785 10.5 15.8014 10.5 15.8178 10.5C15.8342 10.5 15.8506 10.5 15.8669 10.5C15.8833 10.5 15.8996 10.5 15.916 10.5C15.9323 10.5 15.9487 10.5 15.965 10.5C15.9814 10.5 15.9977 10.5 16.014 10.5C16.0303 10.5 16.0466 10.5 16.0629 10.5C16.0792 10.5 16.0955 10.5 16.1118 10.5C16.1281 10.5 16.1444 10.5 16.1606 10.5C16.1769 10.5 16.1931 10.5 16.2094 10.5C16.2257 10.5 16.2419 10.5 16.2581 10.5C16.2744 10.5 16.2906 10.5 16.3068 10.5C16.323 10.5 16.3392 10.5 16.3555 10.5C16.3717 10.5 16.3879 10.5 16.404 10.5C16.4202 10.5 16.4364 10.5 16.4526 10.5C16.4688 10.5 16.4849 10.5 16.5011 10.5C16.5172 10.5 16.5334 10.5 16.5495 10.5C16.5657 10.5 16.5818 10.5 16.5979 10.5C16.6141 10.5 16.6302 10.5 16.6463 10.5C16.6624 10.5 16.6785 10.5 16.6946 10.5C16.7107 10.5 16.7268 10.5 16.7429 10.5C16.759 10.5 16.775 10.5 16.7911 10.5C16.8072 10.5 16.8232 10.5 16.8393 10.5C16.8553 10.5 16.8714 10.5 16.8874 10.5C16.9034 10.5 16.9195 10.5 16.9355 10.5C16.9515 10.5 16.9675 10.5 16.9835 10.5C16.9995 10.5 17.0155 10.5 17.0315 10.5C17.0475 10.5 17.0635 10.5 17.0795 10.5C17.0955 10.5 17.1114 10.5 17.1274 10.5C17.1434 10.5 17.1593 10.5 17.1753 10.5C17.1912 10.5 17.2072 10.5 17.2231 10.5C17.239 10.5 17.255 10.5 17.2709 10.5C17.2868 10.5 17.3027 10.5 17.3186 10.5C17.3345 10.5 17.3504 10.5 17.3663 10.5C17.3822 10.5 17.3981 10.5 17.414 10.5C17.4299 10.5 17.4457 10.5 17.4616 10.5C17.4775 10.5 17.4933 10.5 17.5092 10.5C17.525 10.5 17.5409 10.5 17.5567 10.5C17.5726 10.5 17.5884 10.5 17.6042 10.5C17.62 10.5 17.6359 10.5 17.6517 10.5C17.6675 10.5 17.6833 10.5 17.6991 10.5C17.7149 10.5 17.7307 10.5 17.7465 10.5C17.7622 10.5 17.778 10.5 17.7938 10.5C17.8096 10.5 17.8253 10.5 17.8411 10.5C17.8568 10.5 17.8726 10.5 17.8883 10.5C17.9041 10.5 17.9198 10.5 17.9356 10.5C17.9513 10.5 17.967 10.5 17.9827 10.5C17.9985 10.5 18.0142 10.5 18.0299 10.5C18.0456 10.5 18.0613 10.5 18.077 10.5C18.0927 10.5 18.1084 10.5 18.1241 10.5C18.1397 10.5 18.1554 10.5 18.1711 10.5C18.1868 10.5 18.2024 10.5 18.2181 10.5C18.2337 10.5 18.2494 10.5 18.265 10.5C18.2807 10.5 18.2963 10.5 18.3119 10.5C18.3276 10.5 18.3432 10.5 18.3588 10.5C18.3744 10.5 18.3901 10.5 18.4057 10.5C18.4213 10.5 18.4369 10.5 18.4525 10.5C18.4681 10.5 18.4837 10.5 18.4993 10.5C18.5148 10.5 18.5304 10.5 18.546 10.5C18.5616 10.5 18.5771 10.5 18.5927 10.5C18.6083 10.5 18.6238 10.5 18.6394 10.5C18.6549 10.5 18.6705 10.5 18.686 10.5C18.7015 10.5 18.7171 10.5 18.7326 10.5C18.7481 10.5 18.7636 10.5 18.7792 10.5C18.7947 10.5 18.8102 10.5 18.8257 10.5C18.8412 10.5 18.8567 10.5 18.8722 10.5C18.8877 10.5 18.9032 10.5 18.9186 10.5C18.9341 10.5 18.9496 10.5 18.9651 10.5C18.9805 10.5 18.996 10.5 19.0115 10.5C19.0269 10.5 19.0424 10.5 19.0578 10.5C19.0733 10.5 19.0887 10.5 19.1042 10.5C19.1196 10.5 19.135 10.5 19.1505 10.5C19.1659 10.5 19.1813 10.5 19.1967 10.5C19.2122 10.5 19.2276 10.5 19.243 10.5C19.2584 10.5 19.2738 10.5 19.2892 10.5C19.3046 10.5 19.32 10.5 19.3354 10.5C19.3507 10.5 19.3661 10.5 19.3815 10.5C19.3969 10.5 19.4122 10.5 19.4276 10.5C19.443 10.5 19.4583 10.5 19.4737 10.5C19.4891 10.5 19.5044 10.5 19.5198 10.5C19.5351 10.5 19.5504 10.5 19.5658 10.5C19.5811 10.5 19.5964 10.5 19.6118 10.5C19.6271 10.5 19.6424 10.5 19.6577 10.5C19.6731 10.5 19.6884 10.5 19.7037 10.5C19.719 10.5 19.7343 10.5 19.7496 10.5C19.7649 10.5 19.7802 10.5 19.7955 10.5C19.8107 10.5 19.826 10.5 19.8413 10.5C19.8566 10.5 19.8719 10.5 19.8871 10.5C19.9024 10.5 19.9177 10.5 19.9329 10.5C19.9482 10.5 19.9634 10.5 19.9787 10.5C19.9939 10.5 20.0092 10.5 20.0244 10.5C20.0397 10.5 20.0549 10.5 20.0702 10.5C20.0854 10.5 20.1006 10.5 20.1158 10.5C20.1311 10.5 20.1463 10.5 20.1615 10.5C20.1767 10.5 20.1919 10.5 20.2071 10.5C20.2223 10.5 20.2375 10.5 20.2527 10.5C20.2679 10.5 20.2831 10.5 20.2983 10.5C20.3135 10.5 20.3287 10.5 20.3439 10.5C20.3591 10.5 20.3742 10.5 20.3894 10.5C20.4046 10.5 20.4198 10.5 20.4349 10.5C20.4501 10.5 20.4653 10.5 20.4804 10.5C20.4956 10.5 20.5107 10.5 20.5259 10.5C20.541 10.5 20.5562 10.5 20.5713 10.5C20.5865 10.5 20.6016 10.5 20.6167 10.5C20.6319 10.5 20.647 10.5 20.6621 10.5C20.6772 10.5 20.6924 10.5 20.7075 10.5C20.7226 10.5 20.7377 10.5 20.7528 10.5C20.7679 10.5 20.783 10.5 20.7981 10.5C20.8132 10.5 20.8283 10.5 20.8434 10.5C20.8585 10.5 20.8736 10.5 20.8887 10.5C20.9038 10.5 20.9189 10.5 20.934 10.5C20.9491 10.5 20.9641 10.5 20.9792 10.5C20.9943 10.5 21.0094 10.5 21.0244 10.5C21.0395 10.5 21.0545 10.5 21.0696 10.5C21.0847 10.5 21.0997 10.5 21.1148 10.5C21.1298 10.5 21.1449 10.5 21.1599 10.5C21.175 10.5 21.19 10.5 21.2051 10.5C21.2201 10.5 21.2351 10.5 21.2502 10.5C21.2652 10.5 21.2802 10.5 21.2953 10.5C21.3103 10.5 21.3253 10.5 21.3403 10.5C21.3553 10.5 21.3704 10.5 21.3854 10.5C21.4004 10.5 21.4154 10.5 21.4304 10.5C21.4454 10.5 21.4604 10.5 21.4754 10.5C21.4904 10.5 21.5054 10.5 21.5204 10.5C21.5354 10.5 21.5504 10.5 21.5654 10.5C21.5804 10.5 21.5954 10.5 21.6103 10.5C21.6253 10.5 21.6403 10.5 21.6553 10.5C21.6703 10.5 21.6852 10.5 21.7002 10.5C21.7152 10.5 21.7301 10.5 21.7451 10.5C21.7601 10.5 21.775 10.5 21.79 10.5C21.805 10.5 21.8199 10.5 21.8349 10.5C21.8498 10.5 21.8648 10.5 21.8797 10.5C21.8947 10.5 21.9096 10.5 21.9246 10.5C21.9395 10.5 21.9544 10.5 21.9694 10.5C21.9843 10.5 21.9993 10.5 22.0142 10.5C22.0291 10.5 22.0441 10.5 22.059 10.5C22.0739 10.5 22.0888 10.5 22.1038 10.5C22.1187 10.5 22.1336 10.5 22.1485 10.5C22.1634 10.5 22.1784 10.5 22.1933 10.5C22.2082 10.5 22.2231 10.5 22.238 10.5C22.2529 10.5 22.2678 10.5 22.2827 10.5C22.2976 10.5 22.3125 10.5 22.3274 10.5C22.3423 10.5 22.3572 10.5 22.3721 10.5C22.387 10.5 22.4019 10.5 22.4168 10.5C22.4317 10.5 22.4466 10.5 22.4615 10.5C22.4763 10.5 22.4912 10.5 22.5061 10.5C22.521 10.5 22.5359 10.5 22.5507 10.5C22.5656 10.5 22.5805 10.5 22.5954 10.5C22.6103 10.5 22.6251 10.5 22.64 10.5C22.6549 10.5 22.6697 10.5 22.6846 10.5C22.6995 10.5 22.7143 10.5 22.7292 10.5C22.7441 10.5 22.7589 10.5 22.7738 10.5C22.7886 10.5 22.8035 10.5 22.8183 10.5C22.8332 10.5 22.848 10.5 22.8629 10.5C22.8778 10.5 22.8926 10.5 22.9074 10.5C22.9223 10.5 22.9371 10.5 22.952 10.5C22.9668 10.5 22.9817 10.5 22.9965 10.5C23.0114 10.5 23.0262 10.5 23.041 10.5C23.0559 10.5 23.0707 10.5 23.0855 10.5C23.1004 10.5 23.1152 10.5 23.1301 10.5C23.1449 10.5 23.1597 10.5 23.1745 10.5C23.1894 10.5 23.2042 10.5 23.219 10.5C23.2339 10.5 23.2487 10.5 23.2635 10.5C23.2783 10.5 23.2931 10.5 23.308 10.5C23.3228 10.5 23.3376 10.5 23.3524 10.5C23.3672 10.5 23.3821 10.5 23.3969 10.5C23.4117 10.5 23.4265 10.5 23.4413 10.5C23.4561 10.5 23.471 10.5 23.4858 10.5C23.5006 10.5 23.5154 10.5 23.5302 10.5C23.545 10.5 23.5598 10.5 23.5746 10.5C23.5894 10.5 23.6042 10.5 23.619 10.5C23.6338 10.5 23.6486 10.5 23.6634 10.5C23.6782 10.5 23.6931 10.5 23.7079 10.5C23.7227 10.5 23.7375 10.5 23.7523 10.5C23.7671 10.5 23.7819 10.5 23.7966 10.5C23.8114 10.5 23.8262 10.5 23.841 10.5C23.8558 10.5 23.8706 10.5 23.8854 10.5C23.9002 10.5 23.915 10.5 23.9298 10.5C23.9446 10.5 23.9594 10.5 23.9742 10.5C23.989 10.5 24.0038 10.5 24.0186 10.5C24.0333 10.5 24.0481 10.5 24.0629 10.5C24.0777 10.5 24.0925 10.5 24.1073 10.5C24.1221 10.5 24.1369 10.5 24.1517 10.5C24.1664 10.5 24.1812 10.5 24.196 10.5C24.2108 10.5 24.2256 10.5 24.2404 10.5C24.2552 10.5 24.2699 10.5 24.2847 10.5C24.2995 10.5 24.3143 10.5 24.3291 10.5C24.3439 10.5 24.3587 10.5 24.3734 10.5C24.3882 10.5 24.403 10.5 24.4178 10.5C24.4326 10.5 24.4474 10.5 24.4621 10.5C24.4769 10.5 24.4917 10.5 24.5065 10.5C24.5213 10.5 24.536 10.5 24.5508 10.5C24.5656 10.5 24.5804 10.5 24.5952 10.5C24.61 10.5 24.6247 10.5 24.6395 10.5C24.6543 10.5 24.6691 10.5 24.6839 10.5C24.6987 10.5 24.7134 10.5 24.7282 10.5C24.743 10.5 24.7578 10.5 24.7726 10.5C24.7873 10.5 24.8021 10.5 24.8169 10.5C24.8317 10.5 24.8465 10.5 24.8613 10.5C24.876 10.5 24.8908 10.5 24.9056 10.5C24.9204 10.5 24.9352 10.5 24.95 10.5C24.9647 10.5 24.9795 10.5 24.9943 10.5C25.0091 10.5 25.0239 10.5 25.0387 10.5C25.0535 10.5 25.0682 10.5 25.083 10.5C25.0978 10.5 25.1126 10.5 25.1274 10.5C25.1422 10.5 25.157 10.5 25.1718 10.5C25.1865 10.5 25.2013 10.5 25.2161 10.5C25.2309 10.5 25.2457 10.5 25.2605 10.5C25.2753 10.5 25.2901 10.5 25.3049 10.5C25.3197 10.5 25.3344 10.5 25.3492 10.5C25.364 10.5 25.3788 10.5 25.3936 10.5C25.4084 10.5 25.4232 10.5 25.438 10.5C25.4528 10.5 25.4676 10.5 25.4824 10.5C25.4972 10.5 25.512 10.5 25.5268 10.5C25.5416 10.5 25.5564 10.5 25.5712 10.5C25.586 10.5 25.6008 10.5 25.6156 10.5C25.6304 10.5 25.6452 10.5 25.66 10.5C25.6748 10.5 25.6896 10.5 25.7044 10.5C25.7192 10.5 25.734 10.5 25.7489 10.5C25.7637 10.5 25.7785 10.5 25.7933 10.5C25.8081 10.5 25.8229 10.5 25.8377 10.5C25.8525 10.5 25.8674 10.5 25.8822 10.5C25.897 10.5 25.9118 10.5 25.9266 10.5C25.9414 10.5 25.9563 10.5 25.9711 10.5C25.9859 10.5 26.0007 10.5 26.0155 10.5C26.0304 10.5 26.0452 10.5 26.06 10.5C26.0749 10.5 26.0897 10.5 26.1045 10.5C26.1193 10.5 26.1342 10.5 26.149 10.5C26.1638 10.5 26.1787 10.5 26.1935 10.5C26.2083 10.5 26.2232 10.5 26.238 10.5C26.2528 10.5 26.2677 10.5 26.2825 10.5C26.2974 10.5 26.3122 10.5 26.3271 10.5C26.3419 10.5 26.3568 10.5 26.3716 10.5C26.3864 10.5 26.4013 10.5 26.4161 10.5C26.431 10.5 26.4459 10.5 26.4607 10.5C26.4756 10.5 26.4904 10.5 26.5053 10.5C26.5201 10.5 26.535 10.5 26.5499 10.5C26.5647 10.5 26.5796 10.5 26.5945 10.5C26.6093 10.5 26.6242 10.5 26.6391 10.5C26.6539 10.5 26.6688 10.5 26.6837 10.5C26.6985 10.5 26.7134 10.5 26.7283 10.5C26.7432 10.5 26.7581 10.5 26.7729 10.5C26.7878 10.5 26.8027 10.5 26.8176 10.5C26.8325 10.5 26.8474 10.5 26.8623 10.5C26.8772 10.5 26.892 10.5 26.9069 10.5C26.9218 10.5 26.9367 10.5 26.9516 10.5C26.9665 10.5 26.9814 10.5 26.9963 10.5C27.0112 10.5 27.0261 10.5 27.0411 10.5C27.056 10.5 27.0709 10.5 27.0858 10.5C27.1007 10.5 27.1156 10.5 27.1305 10.5C27.1455 10.5 27.1604 10.5 27.1753 10.5C27.1902 10.5 27.2051 10.5 27.2201 10.5C27.235 10.5 27.2499 10.5 27.2649 10.5C27.2798 10.5 27.2947 10.5 27.3097 10.5C27.3246 10.5 27.3396 10.5 27.3545 10.5C27.3694 10.5 27.3844 10.5 27.3993 10.5C27.4143 10.5 27.4292 10.5 27.4442 10.5C27.4591 10.5 27.4741 10.5 27.4891 10.5C27.504 10.5 27.519 10.5 27.5339 10.5C27.5489 10.5 27.5639 10.5 27.5789 10.5C27.5938 10.5 27.6088 10.5 27.6238 10.5C27.6388 10.5 27.6537 10.5 27.6687 10.5C27.6837 10.5 27.6987 10.5 27.7137 10.5C27.7287 10.5 27.7437 10.5 27.7586 10.5C27.7736 10.5 27.7886 10.5 27.8036 10.5C27.8186 10.5 27.8336 10.5 27.8487 10.5C27.8637 10.5 27.8787 10.5 27.8937 10.5C27.9087 10.5 27.9237 10.5 27.9387 10.5C27.9538 10.5 27.9688 10.5 27.9838 10.5C27.9988 10.5 28.0139 10.5 28.0289 10.5C28.0439 10.5 28.059 10.5 28.074 10.5C28.089 10.5 28.1041 10.5 28.1191 10.5C28.1342 10.5 28.1492 10.5 28.1643 10.5C28.1793 10.5 28.1944 10.5 28.2094 10.5C28.2245 10.5 28.2396 10.5 28.2546 10.5C28.2697 10.5 28.2848 10.5 28.2999 10.5C28.3149 10.5 28.33 10.5 28.3451 10.5C28.3602 10.5 28.3752 10.5 28.3903 10.5C28.4054 10.5 28.4205 10.5 28.4356 10.5C28.4507 10.5 28.4658 10.5 28.4809 10.5C28.496 10.5 28.5111 10.5 28.5262 10.5C28.5413 10.5 28.5565 10.5 28.5716 10.5C28.5867 10.5 28.6018 10.5 28.6169 10.5C28.6321 10.5 28.6472 10.5 28.6623 10.5C28.6775 10.5 28.6926 10.5 28.7077 10.5C28.7229 10.5 28.738 10.5 28.7532 10.5C28.7683 10.5 28.7835 10.5 28.7986 10.5C28.8138 10.5 28.829 10.5 28.8441 10.5C28.8593 10.5 28.8745 10.5 28.8896 10.5C28.9048 10.5 28.92 10.5 28.9352 10.5C28.9504 10.5 28.9655 10.5 28.9807 10.5C28.9959 10.5 29.0111 10.5 29.0263 10.5C29.0415 10.5 29.0567 10.5 29.0719 10.5C29.0871 10.5 29.1023 10.5 29.1176 10.5C29.1328 10.5 29.148 10.5 29.1632 10.5C29.1784 10.5 29.1937 10.5 29.2089 10.5C29.2241 10.5 29.2394 10.5 29.2546 10.5C29.2699 10.5 29.2851 10.5 29.3004 10.5C29.3156 10.5 29.3309 10.5 29.3461 10.5C29.3614 10.5 29.3767 10.5 29.3919 10.5C29.4072 10.5 29.4225 10.5 29.4378 10.5C29.453 10.5 29.4683 10.5 29.4836 10.5C29.4989 10.5 29.5142 10.5 29.5295 10.5C29.5448 10.5 29.5601 10.5 29.5754 10.5C29.5907 10.5 29.606 10.5 29.6213 10.5C29.6366 10.5 29.652 10.5 29.6673 10.5C29.6826 10.5 29.698 10.5 29.7133 10.5C29.7286 10.5 29.744 10.5 29.7593 10.5C29.7747 10.5 29.79 10.5 29.8054 10.5C29.8207 10.5 29.8361 10.5 29.8515 10.5C29.8668 10.5 29.8822 10.5 29.8976 10.5C29.9129 10.5 29.9283 10.5 29.9437 10.5C29.9591 10.5 29.9745 10.5 29.9899 10.5C30.0053 10.5 30.0207 10.5 30.0361 10.5C30.0515 10.5 30.0669 10.5 30.0823 10.5C30.0977 10.5 30.1132 10.5 30.1286 10.5C30.144 10.5 30.1595 10.5 30.1749 10.5C30.1903 10.5 30.2058 10.5 30.2212 10.5C30.2367 10.5 30.2521 10.5 30.2676 10.5C30.2831 10.5 30.2985 10.5 30.314 10.5C30.3295 10.5 30.3449 10.5 30.3604 10.5C30.3759 10.5 30.3914 10.5 30.4069 10.5C30.4224 10.5 30.4379 10.5 30.4534 10.5C30.4689 10.5 30.4844 10.5 30.4999 10.5V7.5C30.4844 7.5 30.4689 7.5 30.4534 7.5C30.4379 7.5 30.4224 7.5 30.4069 7.5C30.3914 7.5 30.3759 7.5 30.3604 7.5C30.3449 7.5 30.3295 7.5 30.314 7.5C30.2985 7.5 30.2831 7.5 30.2676 7.5C30.2521 7.5 30.2367 7.5 30.2212 7.5C30.2058 7.5 30.1903 7.5 30.1749 7.5C30.1595 7.5 30.144 7.5 30.1286 7.5C30.1132 7.5 30.0977 7.5 30.0823 7.5C30.0669 7.5 30.0515 7.5 30.0361 7.5C30.0207 7.5 30.0053 7.5 29.9899 7.5C29.9745 7.5 29.9591 7.5 29.9437 7.5C29.9283 7.5 29.9129 7.5 29.8976 7.5C29.8822 7.5 29.8668 7.5 29.8515 7.5C29.8361 7.5 29.8207 7.5 29.8054 7.5C29.79 7.5 29.7747 7.5 29.7593 7.5C29.744 7.5 29.7286 7.5 29.7133 7.5C29.698 7.5 29.6826 7.5 29.6673 7.5C29.652 7.5 29.6366 7.5 29.6213 7.5C29.606 7.5 29.5907 7.5 29.5754 7.5C29.5601 7.5 29.5448 7.5 29.5295 7.5C29.5142 7.5 29.4989 7.5 29.4836 7.5C29.4683 7.5 29.453 7.5 29.4378 7.5C29.4225 7.5 29.4072 7.5 29.3919 7.5C29.3767 7.5 29.3614 7.5 29.3461 7.5C29.3309 7.5 29.3156 7.5 29.3004 7.5C29.2851 7.5 29.2699 7.5 29.2546 7.5C29.2394 7.5 29.2241 7.5 29.2089 7.5C29.1937 7.5 29.1784 7.5 29.1632 7.5C29.148 7.5 29.1328 7.5 29.1176 7.5C29.1023 7.5 29.0871 7.5 29.0719 7.5C29.0567 7.5 29.0415 7.5 29.0263 7.5C29.0111 7.5 28.9959 7.5 28.9807 7.5C28.9655 7.5 28.9504 7.5 28.9352 7.5C28.92 7.5 28.9048 7.5 28.8896 7.5C28.8745 7.5 28.8593 7.5 28.8441 7.5C28.829 7.5 28.8138 7.5 28.7986 7.5C28.7835 7.5 28.7683 7.5 28.7532 7.5C28.738 7.5 28.7229 7.5 28.7077 7.5C28.6926 7.5 28.6775 7.5 28.6623 7.5C28.6472 7.5 28.6321 7.5 28.6169 7.5C28.6018 7.5 28.5867 7.5 28.5716 7.5C28.5565 7.5 28.5413 7.5 28.5262 7.5C28.5111 7.5 28.496 7.5 28.4809 7.5C28.4658 7.5 28.4507 7.5 28.4356 7.5C28.4205 7.5 28.4054 7.5 28.3903 7.5C28.3752 7.5 28.3602 7.5 28.3451 7.5C28.33 7.5 28.3149 7.5 28.2999 7.5C28.2848 7.5 28.2697 7.5 28.2546 7.5C28.2396 7.5 28.2245 7.5 28.2094 7.5C28.1944 7.5 28.1793 7.5 28.1643 7.5C28.1492 7.5 28.1342 7.5 28.1191 7.5C28.1041 7.5 28.089 7.5 28.074 7.5C28.059 7.5 28.0439 7.5 28.0289 7.5C28.0139 7.5 27.9988 7.5 27.9838 7.5C27.9688 7.5 27.9538 7.5 27.9387 7.5C27.9237 7.5 27.9087 7.5 27.8937 7.5C27.8787 7.5 27.8637 7.5 27.8487 7.5C27.8336 7.5 27.8186 7.5 27.8036 7.5C27.7886 7.5 27.7736 7.5 27.7586 7.5C27.7437 7.5 27.7287 7.5 27.7137 7.5C27.6987 7.5 27.6837 7.5 27.6687 7.5C27.6537 7.5 27.6388 7.5 27.6238 7.5C27.6088 7.5 27.5938 7.5 27.5789 7.5C27.5639 7.5 27.5489 7.5 27.5339 7.5C27.519 7.5 27.504 7.5 27.4891 7.5C27.4741 7.5 27.4591 7.5 27.4442 7.5C27.4292 7.5 27.4143 7.5 27.3993 7.5C27.3844 7.5 27.3694 7.5 27.3545 7.5C27.3396 7.5 27.3246 7.5 27.3097 7.5C27.2947 7.5 27.2798 7.5 27.2649 7.5C27.2499 7.5 27.235 7.5 27.2201 7.5C27.2051 7.5 27.1902 7.5 27.1753 7.5C27.1604 7.5 27.1455 7.5 27.1305 7.5C27.1156 7.5 27.1007 7.5 27.0858 7.5C27.0709 7.5 27.056 7.5 27.0411 7.5C27.0261 7.5 27.0112 7.5 26.9963 7.5C26.9814 7.5 26.9665 7.5 26.9516 7.5C26.9367 7.5 26.9218 7.5 26.9069 7.5C26.892 7.5 26.8772 7.5 26.8623 7.5C26.8474 7.5 26.8325 7.5 26.8176 7.5C26.8027 7.5 26.7878 7.5 26.7729 7.5C26.7581 7.5 26.7432 7.5 26.7283 7.5C26.7134 7.5 26.6985 7.5 26.6837 7.5C26.6688 7.5 26.6539 7.5 26.6391 7.5C26.6242 7.5 26.6093 7.5 26.5945 7.5C26.5796 7.5 26.5647 7.5 26.5499 7.5C26.535 7.5 26.5201 7.5 26.5053 7.5C26.4904 7.5 26.4756 7.5 26.4607 7.5C26.4459 7.5 26.431 7.5 26.4161 7.5C26.4013 7.5 26.3864 7.5 26.3716 7.5C26.3568 7.5 26.3419 7.5 26.3271 7.5C26.3122 7.5 26.2974 7.5 26.2825 7.5C26.2677 7.5 26.2528 7.5 26.238 7.5C26.2232 7.5 26.2083 7.5 26.1935 7.5C26.1787 7.5 26.1638 7.5 26.149 7.5C26.1342 7.5 26.1193 7.5 26.1045 7.5C26.0897 7.5 26.0749 7.5 26.06 7.5C26.0452 7.5 26.0304 7.5 26.0155 7.5C26.0007 7.5 25.9859 7.5 25.9711 7.5C25.9563 7.5 25.9414 7.5 25.9266 7.5C25.9118 7.5 25.897 7.5 25.8822 7.5C25.8674 7.5 25.8525 7.5 25.8377 7.5C25.8229 7.5 25.8081 7.5 25.7933 7.5C25.7785 7.5 25.7637 7.5 25.7489 7.5C25.734 7.5 25.7192 7.5 25.7044 7.5C25.6896 7.5 25.6748 7.5 25.66 7.5C25.6452 7.5 25.6304 7.5 25.6156 7.5C25.6008 7.5 25.586 7.5 25.5712 7.5C25.5564 7.5 25.5416 7.5 25.5268 7.5C25.512 7.5 25.4972 7.5 25.4824 7.5C25.4676 7.5 25.4528 7.5 25.438 7.5C25.4232 7.5 25.4084 7.5 25.3936 7.5C25.3788 7.5 25.364 7.5 25.3492 7.5C25.3344 7.5 25.3197 7.5 25.3049 7.5C25.2901 7.5 25.2753 7.5 25.2605 7.5C25.2457 7.5 25.2309 7.5 25.2161 7.5C25.2013 7.5 25.1865 7.5 25.1718 7.5C25.157 7.5 25.1422 7.5 25.1274 7.5C25.1126 7.5 25.0978 7.5 25.083 7.5C25.0682 7.5 25.0535 7.5 25.0387 7.5C25.0239 7.5 25.0091 7.5 24.9943 7.5C24.9795 7.5 24.9647 7.5 24.95 7.5C24.9352 7.5 24.9204 7.5 24.9056 7.5C24.8908 7.5 24.876 7.5 24.8613 7.5C24.8465 7.5 24.8317 7.5 24.8169 7.5C24.8021 7.5 24.7873 7.5 24.7726 7.5C24.7578 7.5 24.743 7.5 24.7282 7.5C24.7134 7.5 24.6987 7.5 24.6839 7.5C24.6691 7.5 24.6543 7.5 24.6395 7.5C24.6247 7.5 24.61 7.5 24.5952 7.5C24.5804 7.5 24.5656 7.5 24.5508 7.5C24.536 7.5 24.5213 7.5 24.5065 7.5C24.4917 7.5 24.4769 7.5 24.4621 7.5C24.4474 7.5 24.4326 7.5 24.4178 7.5C24.403 7.5 24.3882 7.5 24.3734 7.5C24.3587 7.5 24.3439 7.5 24.3291 7.5C24.3143 7.5 24.2995 7.5 24.2847 7.5C24.2699 7.5 24.2552 7.5 24.2404 7.5C24.2256 7.5 24.2108 7.5 24.196 7.5C24.1812 7.5 24.1664 7.5 24.1517 7.5C24.1369 7.5 24.1221 7.5 24.1073 7.5C24.0925 7.5 24.0777 7.5 24.0629 7.5C24.0481 7.5 24.0333 7.5 24.0186 7.5C24.0038 7.5 23.989 7.5 23.9742 7.5C23.9594 7.5 23.9446 7.5 23.9298 7.5C23.915 7.5 23.9002 7.5 23.8854 7.5C23.8706 7.5 23.8558 7.5 23.841 7.5C23.8262 7.5 23.8114 7.5 23.7966 7.5C23.7819 7.5 23.7671 7.5 23.7523 7.5C23.7375 7.5 23.7227 7.5 23.7079 7.5C23.6931 7.5 23.6782 7.5 23.6634 7.5C23.6486 7.5 23.6338 7.5 23.619 7.5C23.6042 7.5 23.5894 7.5 23.5746 7.5C23.5598 7.5 23.545 7.5 23.5302 7.5C23.5154 7.5 23.5006 7.5 23.4858 7.5C23.471 7.5 23.4561 7.5 23.4413 7.5C23.4265 7.5 23.4117 7.5 23.3969 7.5C23.3821 7.5 23.3672 7.5 23.3524 7.5C23.3376 7.5 23.3228 7.5 23.308 7.5C23.2931 7.5 23.2783 7.5 23.2635 7.5C23.2487 7.5 23.2339 7.5 23.219 7.5C23.2042 7.5 23.1894 7.5 23.1745 7.5C23.1597 7.5 23.1449 7.5 23.1301 7.5C23.1152 7.5 23.1004 7.5 23.0855 7.5C23.0707 7.5 23.0559 7.5 23.041 7.5C23.0262 7.5 23.0114 7.5 22.9965 7.5C22.9817 7.5 22.9668 7.5 22.952 7.5C22.9371 7.5 22.9223 7.5 22.9074 7.5C22.8926 7.5 22.8778 7.5 22.8629 7.5C22.848 7.5 22.8332 7.5 22.8183 7.5C22.8035 7.5 22.7886 7.5 22.7738 7.5C22.7589 7.5 22.7441 7.5 22.7292 7.5C22.7143 7.5 22.6995 7.5 22.6846 7.5C22.6697 7.5 22.6549 7.5 22.64 7.5C22.6251 7.5 22.6103 7.5 22.5954 7.5C22.5805 7.5 22.5656 7.5 22.5507 7.5C22.5359 7.5 22.521 7.5 22.5061 7.5C22.4912 7.5 22.4763 7.5 22.4615 7.5C22.4466 7.5 22.4317 7.5 22.4168 7.5C22.4019 7.5 22.387 7.5 22.3721 7.5C22.3572 7.5 22.3423 7.5 22.3274 7.5C22.3125 7.5 22.2976 7.5 22.2827 7.5C22.2678 7.5 22.2529 7.5 22.238 7.5C22.2231 7.5 22.2082 7.5 22.1933 7.5C22.1784 7.5 22.1634 7.5 22.1485 7.5C22.1336 7.5 22.1187 7.5 22.1038 7.5C22.0888 7.5 22.0739 7.5 22.059 7.5C22.0441 7.5 22.0291 7.5 22.0142 7.5C21.9993 7.5 21.9843 7.5 21.9694 7.5C21.9544 7.5 21.9395 7.5 21.9246 7.5C21.9096 7.5 21.8947 7.5 21.8797 7.5C21.8648 7.5 21.8498 7.5 21.8349 7.5C21.8199 7.5 21.805 7.5 21.79 7.5C21.775 7.5 21.7601 7.5 21.7451 7.5C21.7301 7.5 21.7152 7.5 21.7002 7.5C21.6852 7.5 21.6703 7.5 21.6553 7.5C21.6403 7.5 21.6253 7.5 21.6103 7.5C21.5954 7.5 21.5804 7.5 21.5654 7.5C21.5504 7.5 21.5354 7.5 21.5204 7.5C21.5054 7.5 21.4904 7.5 21.4754 7.5C21.4604 7.5 21.4454 7.5 21.4304 7.5C21.4154 7.5 21.4004 7.5 21.3854 7.5C21.3704 7.5 21.3553 7.5 21.3403 7.5C21.3253 7.5 21.3103 7.5 21.2953 7.5C21.2802 7.5 21.2652 7.5 21.2502 7.5C21.2351 7.5 21.2201 7.5 21.2051 7.5C21.19 7.5 21.175 7.5 21.1599 7.5C21.1449 7.5 21.1298 7.5 21.1148 7.5C21.0997 7.5 21.0847 7.5 21.0696 7.5C21.0545 7.5 21.0395 7.5 21.0244 7.5C21.0094 7.5 20.9943 7.5 20.9792 7.5C20.9641 7.5 20.9491 7.5 20.934 7.5C20.9189 7.5 20.9038 7.5 20.8887 7.5C20.8736 7.5 20.8585 7.5 20.8434 7.5C20.8283 7.5 20.8132 7.5 20.7981 7.5C20.783 7.5 20.7679 7.5 20.7528 7.5C20.7377 7.5 20.7226 7.5 20.7075 7.5C20.6924 7.5 20.6772 7.5 20.6621 7.5C20.647 7.5 20.6319 7.5 20.6167 7.5C20.6016 7.5 20.5865 7.5 20.5713 7.5C20.5562 7.5 20.541 7.5 20.5259 7.5C20.5107 7.5 20.4956 7.5 20.4804 7.5C20.4653 7.5 20.4501 7.5 20.4349 7.5C20.4198 7.5 20.4046 7.5 20.3894 7.5C20.3742 7.5 20.3591 7.5 20.3439 7.5C20.3287 7.5 20.3135 7.5 20.2983 7.5C20.2831 7.5 20.2679 7.5 20.2527 7.5C20.2375 7.5 20.2223 7.5 20.2071 7.5C20.1919 7.5 20.1767 7.5 20.1615 7.5C20.1463 7.5 20.1311 7.5 20.1158 7.5C20.1006 7.5 20.0854 7.5 20.0702 7.5C20.0549 7.5 20.0397 7.5 20.0244 7.5C20.0092 7.5 19.9939 7.5 19.9787 7.5C19.9634 7.5 19.9482 7.5 19.9329 7.5C19.9177 7.5 19.9024 7.5 19.8871 7.5C19.8719 7.5 19.8566 7.5 19.8413 7.5C19.826 7.5 19.8107 7.5 19.7955 7.5C19.7802 7.5 19.7649 7.5 19.7496 7.5C19.7343 7.5 19.719 7.5 19.7037 7.5C19.6884 7.5 19.6731 7.5 19.6577 7.5C19.6424 7.5 19.6271 7.5 19.6118 7.5C19.5964 7.5 19.5811 7.5 19.5658 7.5C19.5504 7.5 19.5351 7.5 19.5198 7.5C19.5044 7.5 19.4891 7.5 19.4737 7.5C19.4583 7.5 19.443 7.5 19.4276 7.5C19.4122 7.5 19.3969 7.5 19.3815 7.5C19.3661 7.5 19.3507 7.5 19.3354 7.5C19.32 7.5 19.3046 7.5 19.2892 7.5C19.2738 7.5 19.2584 7.5 19.243 7.5C19.2276 7.5 19.2122 7.5 19.1967 7.5C19.1813 7.5 19.1659 7.5 19.1505 7.5C19.135 7.5 19.1196 7.5 19.1042 7.5C19.0887 7.5 19.0733 7.5 19.0578 7.5C19.0424 7.5 19.0269 7.5 19.0115 7.5C18.996 7.5 18.9805 7.5 18.9651 7.5C18.9496 7.5 18.9341 7.5 18.9186 7.5C18.9032 7.5 18.8877 7.5 18.8722 7.5C18.8567 7.5 18.8412 7.5 18.8257 7.5C18.8102 7.5 18.7947 7.5 18.7792 7.5C18.7636 7.5 18.7481 7.5 18.7326 7.5C18.7171 7.5 18.7015 7.5 18.686 7.5C18.6705 7.5 18.6549 7.5 18.6394 7.5C18.6238 7.5 18.6083 7.5 18.5927 7.5C18.5771 7.5 18.5616 7.5 18.546 7.5C18.5304 7.5 18.5148 7.5 18.4993 7.5C18.4837 7.5 18.4681 7.5 18.4525 7.5C18.4369 7.5 18.4213 7.5 18.4057 7.5C18.3901 7.5 18.3744 7.5 18.3588 7.5C18.3432 7.5 18.3276 7.5 18.3119 7.5C18.2963 7.5 18.2807 7.5 18.265 7.5C18.2494 7.5 18.2337 7.5 18.2181 7.5C18.2024 7.5 18.1868 7.5 18.1711 7.5C18.1554 7.5 18.1397 7.5 18.1241 7.5C18.1084 7.5 18.0927 7.5 18.077 7.5C18.0613 7.5 18.0456 7.5 18.0299 7.5C18.0142 7.5 17.9985 7.5 17.9827 7.5C17.967 7.5 17.9513 7.5 17.9356 7.5C17.9198 7.5 17.9041 7.5 17.8883 7.5C17.8726 7.5 17.8568 7.5 17.8411 7.5C17.8253 7.5 17.8096 7.5 17.7938 7.5C17.778 7.5 17.7622 7.5 17.7465 7.5C17.7307 7.5 17.7149 7.5 17.6991 7.5C17.6833 7.5 17.6675 7.5 17.6517 7.5C17.6359 7.5 17.62 7.5 17.6042 7.5C17.5884 7.5 17.5726 7.5 17.5567 7.5C17.5409 7.5 17.525 7.5 17.5092 7.5C17.4933 7.5 17.4775 7.5 17.4616 7.5C17.4457 7.5 17.4299 7.5 17.414 7.5C17.3981 7.5 17.3822 7.5 17.3663 7.5C17.3504 7.5 17.3345 7.5 17.3186 7.5C17.3027 7.5 17.2868 7.5 17.2709 7.5C17.255 7.5 17.239 7.5 17.2231 7.5C17.2072 7.5 17.1912 7.5 17.1753 7.5C17.1593 7.5 17.1434 7.5 17.1274 7.5C17.1114 7.5 17.0955 7.5 17.0795 7.5C17.0635 7.5 17.0475 7.5 17.0315 7.5C17.0155 7.5 16.9995 7.5 16.9835 7.5C16.9675 7.5 16.9515 7.5 16.9355 7.5C16.9195 7.5 16.9034 7.5 16.8874 7.5C16.8714 7.5 16.8553 7.5 16.8393 7.5C16.8232 7.5 16.8072 7.5 16.7911 7.5C16.775 7.5 16.759 7.5 16.7429 7.5C16.7268 7.5 16.7107 7.5 16.6946 7.5C16.6785 7.5 16.6624 7.5 16.6463 7.5C16.6302 7.5 16.6141 7.5 16.5979 7.5C16.5818 7.5 16.5657 7.5 16.5495 7.5C16.5334 7.5 16.5172 7.5 16.5011 7.5C16.4849 7.5 16.4688 7.5 16.4526 7.5C16.4364 7.5 16.4202 7.5 16.404 7.5C16.3879 7.5 16.3717 7.5 16.3555 7.5C16.3392 7.5 16.323 7.5 16.3068 7.5C16.2906 7.5 16.2744 7.5 16.2581 7.5C16.2419 7.5 16.2257 7.5 16.2094 7.5C16.1931 7.5 16.1769 7.5 16.1606 7.5C16.1444 7.5 16.1281 7.5 16.1118 7.5C16.0955 7.5 16.0792 7.5 16.0629 7.5C16.0466 7.5 16.0303 7.5 16.014 7.5C15.9977 7.5 15.9814 7.5 15.965 7.5C15.9487 7.5 15.9323 7.5 15.916 7.5C15.8996 7.5 15.8833 7.5 15.8669 7.5C15.8506 7.5 15.8342 7.5 15.8178 7.5C15.8014 7.5 15.785 7.5 15.7686 7.5C15.7522 7.5 15.7358 7.5 15.7194 7.5C15.703 7.5 15.6866 7.5 15.6701 7.5C15.6537 7.5 15.6373 7.5 15.6208 7.5C15.6044 7.5 15.5879 7.5 15.5714 7.5C15.555 7.5 15.5385 7.5 15.522 7.5C15.5055 7.5 15.489 7.5 15.4725 7.5C15.456 7.5 15.4395 7.5 15.423 7.5C15.4065 7.5 15.39 7.5 15.3734 7.5C15.3569 7.5 15.3403 7.5 15.3238 7.5C15.3072 7.5 15.2907 7.5 15.2741 7.5C15.2575 7.5 15.2409 7.5 15.2244 7.5C15.2078 7.5 15.1912 7.5 15.1746 7.5C15.158 7.5 15.1413 7.5 15.1247 7.5C15.1081 7.5 15.0915 7.5 15.0748 7.5C15.0582 7.5 15.0415 7.5 15.0249 7.5C15.0082 7.5 14.9915 7.5 14.9749 7.5C14.9582 7.5 14.9415 7.5 14.9248 7.5C14.9081 7.5 14.8914 7.5 14.8747 7.5C14.858 7.5 14.8412 7.5 14.8245 7.5C14.8078 7.5 14.791 7.5 14.7743 7.5C14.7575 7.5 14.7408 7.5 14.724 7.5C14.7072 7.5 14.6904 7.5 14.6737 7.5C14.6569 7.5 14.6401 7.5 14.6233 7.5C14.6065 7.5 14.5896 7.5 14.5728 7.5C14.556 7.5 14.5391 7.5 14.5223 7.5C14.5055 7.5 14.4886 7.5 14.4717 7.5C14.4549 7.5 14.438 7.5 14.4211 7.5C14.4042 7.5 14.3873 7.5 14.3704 7.5C14.3535 7.5 14.3366 7.5 14.3197 7.5C14.3028 7.5 14.2859 7.5 14.2689 7.5C14.252 7.5 14.235 7.5 14.2181 7.5C14.2011 7.5 14.1841 7.5 14.1671 7.5C14.1502 7.5 14.1332 7.5 14.1162 7.5C14.0992 7.5 14.0822 7.5 14.0652 7.5C14.0481 7.5 14.0311 7.5 14.0141 7.5C13.997 7.5 13.98 7.5 13.9629 7.5C13.9459 7.5 13.9288 7.5 13.9117 7.5C13.8946 7.5 13.8775 7.5 13.8604 7.5C13.8433 7.5 13.8262 7.5 13.8091 7.5C13.792 7.5 13.7749 7.5 13.7577 7.5C13.7406 7.5 13.7234 7.5 13.7063 7.5C13.6891 7.5 13.672 7.5 13.6548 7.5C13.6376 7.5 13.6204 7.5 13.6032 7.5C13.586 7.5 13.5688 7.5 13.5516 7.5C13.5344 7.5 13.5171 7.5 13.4999 7.5C13.4826 7.5 13.4654 7.5 13.4481 7.5C13.4309 7.5 13.4136 7.5 13.3963 7.5C13.379 7.5 13.3617 7.5 13.3444 7.5C13.3271 7.5 13.3098 7.5 13.2925 7.5C13.2752 7.5 13.2578 7.5 13.2405 7.5C13.2231 7.5 13.2058 7.5 13.1884 7.5C13.1711 7.5 13.1537 7.5 13.1363 7.5C13.1189 7.5 13.1015 7.5 13.0841 7.5C13.0667 7.5 13.0493 7.5 13.0318 7.5C13.0144 7.5 12.997 7.5 12.9795 7.5C12.9621 7.5 12.9446 7.5 12.9271 7.5C12.9096 7.5 12.8922 7.5 12.8747 7.5C12.8572 7.5 12.8397 7.5 12.8221 7.5C12.8046 7.5 12.7871 7.5 12.7696 7.5C12.752 7.5 12.7345 7.5 12.7169 7.5C12.6994 7.5 12.6818 7.5 12.6642 7.5C12.6466 7.5 12.629 7.5 12.6114 7.5C12.5938 7.5 12.5762 7.5 12.5586 7.5C12.5409 7.5 12.5233 7.5 12.5057 7.5C12.488 7.5 12.4703 7.5 12.4527 7.5C12.435 7.5 12.4173 7.5 12.3996 7.5C12.3819 7.5 12.3642 7.5 12.3465 7.5C12.3288 7.5 12.3111 7.5 12.2933 7.5C12.2756 7.5 12.2578 7.5 12.2401 7.5C12.2223 7.5 12.2045 7.5 12.1867 7.5C12.169 7.5 12.1512 7.5 12.1334 7.5C12.1156 7.5 12.0977 7.5 12.0799 7.5C12.0621 7.5 12.0442 7.5 12.0264 7.5C12.0085 7.5 11.9907 7.5 11.9728 7.5C11.9549 7.5 11.937 7.5 11.9191 7.5C11.9012 7.5 11.8833 7.5 11.8654 7.5C11.8475 7.5 11.8295 7.5 11.8116 7.5C11.7936 7.5 11.7757 7.5 11.7577 7.5C11.7397 7.5 11.7217 7.5 11.7037 7.5C11.6858 7.5 11.6677 7.5 11.6497 7.5C11.6317 7.5 11.6137 7.5 11.5956 7.5C11.5776 7.5 11.5595 7.5 11.5415 7.5C11.5234 7.5 11.5053 7.5 11.4873 7.5C11.4692 7.5 11.4511 7.5 11.4329 7.5C11.4148 7.5 11.3967 7.5 11.3786 7.5C11.3604 7.5 11.3423 7.5 11.3241 7.5C11.306 7.5 11.2878 7.5 11.2696 7.5C11.2514 7.5 11.2332 7.5 11.215 7.5C11.1968 7.5 11.1786 7.5 11.1603 7.5C11.1421 7.5 11.1239 7.5 11.1056 7.5C11.0873 7.5 11.0691 7.5 11.0508 7.5C11.0325 7.5 11.0142 7.5 10.9959 7.5C10.9776 7.5 10.9593 7.5 10.9409 7.5C10.9226 7.5 10.9043 7.5 10.8859 7.5C10.8675 7.5 10.8492 7.5 10.8308 7.5C10.8124 7.5 10.794 7.5 10.7756 7.5C10.7572 7.5 10.7388 7.5 10.7203 7.5C10.7019 7.5 10.6835 7.5 10.665 7.5C10.6465 7.5 10.6281 7.5 10.6096 7.5C10.5911 7.5 10.5726 7.5 10.5541 7.5C10.5356 7.5 10.5171 7.5 10.4985 7.5C10.48 7.5 10.4615 7.5 10.4429 7.5C10.4243 7.5 10.4058 7.5 10.3872 7.5C10.3686 7.5 10.35 7.5 10.3314 7.5C10.3128 7.5 10.2941 7.5 10.2755 7.5C10.2569 7.5 10.2382 7.5 10.2196 7.5C10.2009 7.5 10.1822 7.5 10.1635 7.5C10.1448 7.5 10.1261 7.5 10.1074 7.5C10.0887 7.5 10.07 7.5 10.0512 7.5C10.0325 7.5 10.0137 7.5 9.99497 7.5C9.9762 7.5 9.95742 7.5 9.93863 7.5C9.91983 7.5 9.90103 7.5 9.88221 7.5C9.86339 7.5 9.84455 7.5 9.8257 7.5C9.80686 7.5 9.788 7.5 9.76912 7.5C9.75025 7.5 9.73136 7.5 9.71246 7.5C9.69356 7.5 9.67465 7.5 9.65572 7.5C9.63679 7.5 9.61785 7.5 9.5989 7.5C9.57994 7.5 9.56098 7.5 9.542 7.5C9.52301 7.5 9.50402 7.5 9.48501 7.5C9.466 7.5 9.44698 7.5 9.42795 7.5C9.40891 7.5 9.38986 7.5 9.3708 7.5C9.35174 7.5 9.33266 7.5 9.31357 7.5C9.29448 7.5 9.27538 7.5 9.25626 7.5C9.23714 7.5 9.21801 7.5 9.19887 7.5C9.17972 7.5 9.16057 7.5 9.14139 7.5C9.12222 7.5 9.10303 7.5 9.08384 7.5C9.06464 7.5 9.04542 7.5 9.02619 7.5C9.00697 7.5 8.98772 7.5 8.96847 7.5C8.94921 7.5 8.92994 7.5 8.91066 7.5C8.89138 7.5 8.87208 7.5 8.85277 7.5C8.83346 7.5 8.81413 7.5 8.79479 7.5C8.77545 7.5 8.7561 7.5 8.73673 7.5C8.71736 7.5 8.69798 7.5 8.67859 7.5C8.65919 7.5 8.63978 7.5 8.62036 7.5C8.60093 7.5 8.58149 7.5 8.56204 7.5C8.54259 7.5 8.52312 7.5 8.50364 7.5C8.48416 7.5 8.46466 7.5 8.44515 7.5C8.42564 7.5 8.40612 7.5 8.38658 7.5C8.36704 7.5 8.34749 7.5 8.32792 7.5C8.30836 7.5 8.28877 7.5 8.26918 7.5C8.24958 7.5 8.22997 7.5 8.21035 7.5C8.19072 7.5 8.17108 7.5 8.15143 7.5C8.13177 7.5 8.1121 7.5 8.09242 7.5C8.07274 7.5 8.05304 7.5 8.03333 7.5C8.01361 7.5 7.99389 7.5 7.97414 7.5C7.9544 7.5 7.93465 7.5 7.91488 7.5C7.8951 7.5 7.87532 7.5 7.85552 7.5C7.83572 7.5 7.8159 7.5 7.79607 7.5C7.77624 7.5 7.7564 7.5 7.73654 7.5C7.71668 7.5 7.6968 7.5 7.67691 7.5C7.65702 7.5 7.63712 7.5 7.6172 7.5C7.59728 7.5 7.57734 7.5 7.55739 7.5C7.53744 7.5 7.51748 7.5 7.4975 7.5C7.47752 7.5 7.45753 7.5 7.43752 7.5C7.41751 7.5 7.39748 7.5 7.37744 7.5C7.3574 7.5 7.33735 7.5 7.31728 7.5C7.29721 7.5 7.27712 7.5 7.25702 7.5C7.23692 7.5 7.21681 7.5 7.19668 7.5C7.17655 7.5 7.1564 7.5 7.13624 7.5C7.11608 7.5 7.0959 7.5 7.07571 7.5C7.05552 7.5 7.03531 7.5 7.01509 7.5C6.99487 7.5 6.97463 7.5 6.95438 7.5C6.93412 7.5 6.91385 7.5 6.89357 7.5C6.87329 7.5 6.85299 7.5 6.83267 7.5C6.81236 7.5 6.79202 7.5 6.77168 7.5C6.75133 7.5 6.73097 7.5 6.71059 7.5C6.69022 7.5 6.66982 7.5 6.64941 7.5C6.62901 7.5 6.60858 7.5 6.58814 7.5C6.5677 7.5 6.54725 7.5 6.52678 7.5C6.5063 7.5 6.48582 7.5 6.46531 7.5C6.44481 7.5 6.42429 7.5 6.40376 7.5C6.38323 7.5 6.36268 7.5 6.34211 7.5C6.32154 7.5 6.30096 7.5 6.28036 7.5C6.25977 7.5 6.23915 7.5 6.21852 7.5C6.19789 7.5 6.17725 7.5 6.15659 7.5C6.13593 7.5 6.11525 7.5 6.09456 7.5C6.07386 7.5 6.05315 7.5 6.03243 7.5C6.0117 7.5 5.99096 7.5 5.9702 7.5C5.94944 7.5 5.92867 7.5 5.90788 7.5C5.88709 7.5 5.86629 7.5 5.84546 7.5C5.82464 7.5 5.8038 7.5 5.78295 7.5C5.76209 7.5 5.74122 7.5 5.72034 7.5C5.69945 7.5 5.67854 7.5 5.65762 7.5C5.63671 7.5 5.61577 7.5 5.59482 7.5C5.57386 7.5 5.5529 7.5 5.53191 7.5C5.51092 7.5 5.48992 7.5 5.46891 7.5C5.44789 7.5 5.42685 7.5 5.4058 7.5C5.38475 7.5 5.36368 7.5 5.3426 7.5C5.32151 7.5 5.30041 7.5 5.2793 7.5V10.5Z" fill="#113366"/>
<circle cx="5.28" cy="8.99875" r="3.78" fill="white" stroke="#113366" stroke-width="3"/>
</svg>
