<svg width="54" height="78" viewBox="0 0 54 78" fill="none" xmlns="http://www.w3.org/2000/svg">
<g clip-path="url(#clip0_135_9053)">
<path d="M12.9653 77.9998C12.3785 74.0396 10.2524 71.2318 8.45741 68.234C7.4511 66.553 4.33123 65.9959 3.01893 66.8221C2.20189 67.3349 1.86751 68.6202 1.22082 69.7155C0.892745 69.1235 0.498423 68.4176 0 67.5217C0.564669 67.5217 1.0694 67.5755 1.08202 67.5154C1.4858 65.7363 3.01893 65.9896 4.22082 65.825C5.96845 65.5844 7.63407 65.7237 9.01577 67.145C10.3186 68.484 11.7003 69.7819 13.2019 70.8867C15.2744 72.4094 17.5836 72.1498 19.8328 71.2191C20.8328 70.8044 21.8896 70.3897 22.7129 69.7186C25.47 67.4806 25.2587 65.0082 22.8013 62.6815C22.4448 62.3428 22.0536 62.0421 21.4164 61.5008C24.2019 61.2665 24.5363 63.704 26.1767 64.8848C26.5489 64.3561 27.2208 63.8433 27.2208 63.3305C27.224 60.2314 27.429 57.0658 26.8391 54.0648C26.511 52.3934 24.8517 50.9372 23.6404 49.5127C23.082 48.8543 22.5773 48.4269 22.7918 47.4171C23.1451 45.7393 23.2366 44.0046 23.5331 42.311C23.6309 41.7538 24.0315 41.2537 24.448 40.418C25.2934 41.4183 25.9211 42.159 26.5457 42.903C30.265 47.3348 31.6088 52.3554 30.571 58.1041C29.959 61.4944 28.8612 64.679 27.1136 67.585C25.8391 69.6996 24.0568 71.3774 21.4132 71.8269C18.1041 72.3904 15.9022 74.6633 13.7886 77.0311C13.5931 77.2527 13.4038 77.4838 12.9685 77.9998H12.9653Z" fill="#D4B75C"/>
<path d="M28.0781 0.00043621C30.2832 -0.0692066 31.2516 1.39962 32.5135 2.30815C33.1885 2.79248 33.7406 3.46042 34.4377 3.89727C36.7217 5.33761 36.3305 7.5282 36.015 9.61748C35.5135 12.9508 35.1822 16.3633 34.1948 19.5606C32.9109 23.717 31.0592 27.693 29.4409 31.7449C29.3936 31.8652 29.2264 31.938 28.8573 32.0235C32.4409 21.3143 31.5229 10.7191 28.0781 0.00043621Z" fill="#D4B75C"/>
<path d="M33.2656 44.2903C40.8808 37.1836 43.9312 27.9939 45.048 17.9115C45.2309 17.8672 45.4107 17.8229 45.5937 17.7754C46.3445 18.7124 47.0858 19.6526 47.8461 20.5801C49.294 22.3433 49.8618 23.9356 48.2719 26.1705C46.6347 28.4719 45.7262 31.2829 44.294 33.7521C43.4675 35.1734 42.2246 36.351 41.1805 37.6458C38.9817 40.3713 36.4486 42.698 33.2688 44.2903H33.2656Z" fill="#D4B75C"/>
<path d="M32.9719 36.1476C37.524 27.2396 39.1202 17.86 37.4577 7.95172C37.587 7.8979 37.7164 7.84092 37.8457 7.78711C38.3252 8.20497 38.8205 8.60383 39.2747 9.04385C40.2558 9.99985 41.2148 10.9812 42.1864 11.9435C42.9372 12.6874 43.3631 13.5042 43.0224 14.6153C42.3788 16.7141 41.871 18.8603 41.1486 20.9338C40.3 23.3681 39.3852 25.7898 38.3189 28.1323C37.2653 30.4527 36.0287 32.6939 34.7826 34.9193C34.4609 35.4955 33.811 35.888 33.3158 36.3628L32.9688 36.1444L32.9719 36.1476Z" fill="#D4B75C"/>
<path d="M51.7543 30.4435C52.4199 31.8839 53.1518 33.2989 53.707 34.7804C53.8616 35.1951 53.6502 35.9422 53.3379 36.3062C49.4767 40.795 45.1171 44.6855 39.7922 47.3731C39.4136 47.5662 38.953 47.601 38.3789 47.506C44.5808 43.2103 49.2212 37.7972 51.0508 30.2314C51.2874 30.3011 51.5209 30.3739 51.7575 30.4435H51.7543Z" fill="#D4B75C"/>
<path d="M36.1203 53.9569C43.7639 52.5831 48.7923 47.5625 53.3065 41.6396C53.4863 42.4849 53.6566 43.1211 53.7576 43.7701C54.3065 47.2617 54.1046 47.7429 51.0541 49.5156C48.6882 50.8895 46.3948 52.5356 43.849 53.4125C41.4989 54.2228 38.8522 54.169 36.3349 54.4951C36.2623 54.3178 36.1897 54.1374 36.1172 53.9601L36.1203 53.9569Z" fill="#D4B75C"/>
<path d="M37.4844 59.4937C39.885 58.8574 42.3803 58.4617 44.6547 57.5216C46.9607 56.5656 49.0459 55.0714 51.2541 53.7988C52.2478 56.2965 51.7336 57.8951 49.4465 58.5757C45.6011 59.7153 41.6547 60.4212 37.6074 59.9306C37.5664 59.785 37.5254 59.6393 37.4844 59.4969V59.4937Z" fill="#D4B75C"/>
<path d="M47.7026 62.6914C47.7342 63.3182 47.7657 63.831 47.7847 64.347C47.832 65.7145 47.3493 66.4331 45.8036 66.4553C42.3777 66.4996 38.9866 66.3635 35.6711 65.4296C35.261 65.3125 34.8919 65.0403 34.5039 64.8377L34.567 64.3597C36.7784 64.3597 39.0118 64.5686 41.1916 64.2995C43.3083 64.0399 45.3683 63.2897 47.7026 62.6914Z" fill="#D4B75C"/>
<path d="M20.7125 60.6967C20.3434 60.5954 19.927 60.5764 19.6179 60.3833C16.4728 58.4016 12.9649 58.3636 9.44438 58.4902C8.5264 58.5219 7.57687 58.81 6.72198 59.1708C5.27403 59.7786 5.14785 60.2218 5.78192 61.9471C2.87655 60.6745 1.75352 62.8936 0.210938 64.4194C1.5327 61.5514 4.07529 59.6963 6.61157 58.3383C11.0343 55.9704 16.5611 57.4076 20.7094 60.6998L20.7125 60.6967Z" fill="#D4B75C"/>
<path d="M32.1445 69.874C35.4695 70.0323 38.6587 70.1843 41.8859 70.3362C42.0373 71.6942 41.1855 72.5933 39.7281 72.2324C37.5042 71.6784 35.2991 71.0485 33.0941 70.4248C32.7754 70.3362 32.5042 70.0861 32.1445 69.874Z" fill="#D4B75C"/>
<path d="M29.1211 73.5303C30.8246 74.1064 32.5407 74.6477 34.2252 75.2745C34.6763 75.4423 35.0328 75.8696 35.4334 76.1767C34.8845 76.5312 34.1873 77.3005 33.8151 77.1675C31.8813 76.4743 30.2126 75.3125 29.1242 73.5303H29.1211Z" fill="#D4B75C"/>
</g>
<defs>
<clipPath id="clip0_135_9053">
<rect width="54" height="78" fill="white"/>
</clipPath>
</defs>
</svg>
